<svg width="530" height="467" viewBox="0 0 530 467" fill="none" xmlns="http://www.w3.org/2000/svg">
<path fill-rule="evenodd" clip-rule="evenodd" d="M524.82 428.182C496.128 380.612 444.722 392.504 435.556 446.02V446.813L433.564 446.02C398.895 433.335 363.827 444.831 327.165 445.624C343.902 440.867 350.677 431.353 351.872 426.993C354.263 420.65 346.692 416.686 343.105 423.028C334.737 434.524 295.286 453.156 268.985 427.785C266.195 425.803 269.383 412.325 274.564 417.479C280.94 424.614 307.639 428.975 323.977 407.172C329.556 400.829 321.586 390.126 314.015 401.622C308.835 407.965 300.466 416.289 285.323 412.325C280.94 411.136 272.571 402.018 276.955 398.451C278.947 396.469 284.925 390.919 287.316 387.748C289.707 384.18 289.707 375.459 275.759 381.801C267.391 384.18 256.632 385.765 245.474 378.63C239.098 373.477 233.12 377.837 235.91 384.973C241.09 399.64 254.639 398.847 253.444 402.018C251.85 408.361 223.556 426.2 211.602 400.433C208.414 393.297 197.256 395.279 200.842 404.793C206.82 421.839 233.917 430.957 249.06 419.857C255.436 415.1 257.429 419.064 256.233 422.632C251.85 434.524 202.436 458.309 176.135 421.443C171.353 415.497 166.173 421.839 168.165 425.01C186.496 459.895 235.113 456.724 261.015 434.524C275.759 452.363 295.286 451.967 304.451 453.156C216.782 486.058 155.015 449.985 143.459 449.985C143.459 449.985 125.128 441.66 105.203 446.02C95.6391 398.847 49.4135 377.837 18.3308 427.785C8.76692 382.991 13.1504 318.771 57.782 258.516C19.5263 194.694 5.18045 113.825 23.9098 52.7771C63.3609 96.7791 107.594 111.446 150.233 194.694C159.398 189.54 178.128 185.18 186.496 183.198C115.564 72.5978 1.99248 12.7392 0 0.0539174C71.7293 -2.32457 150.233 74.5799 194.466 113.825C218.774 97.5719 310.827 103.915 329.556 113.825C357.451 80.1297 473.015 -7.47796 530 2.03599C490.549 38.1097 411.647 67.048 343.105 183.198C355.06 186.369 371 192.315 377.376 194.694C381.759 185.18 397.699 135.628 510.474 52.7771C534.383 120.168 500.511 190.729 472.617 249.399L472.218 250.192C522.429 313.618 529.203 358.413 524.82 428.182ZM185.699 360.791C213.594 379.423 221.165 346.917 206.82 334.232C179.722 310.447 171.353 299.743 115.962 290.229C104.008 289.04 69.7368 287.058 78.1053 306.086C94.4436 332.646 113.173 323.132 136.286 332.646C164.18 341.763 180.519 356.827 185.699 360.791ZM391.323 333.439C414.835 323.925 433.165 333.439 449.902 306.879C457.872 287.851 423.602 289.833 411.647 291.022C356.654 300.536 347.887 311.239 321.188 335.024C306.444 347.71 314.015 380.216 341.91 361.584C347.09 357.62 363.429 342.556 391.323 333.439Z" fill="black"/>
</svg>
